<svg width="12" height="13" viewBox="0 0 12 13" fill="none" xmlns="http://www.w3.org/2000/svg">
<path d="M3.60566 13C3.31462 13 3.06939 12.8934 2.86998 12.6801C2.67056 12.4668 2.57085 12.2085 2.57085 11.9054C2.57085 11.6023 2.67056 11.3469 2.86998 11.1392C3.06939 10.9316 3.31462 10.8277 3.60566 10.8277C3.88592 10.8277 4.13115 10.9344 4.34134 11.1477C4.55154 11.361 4.65664 11.6192 4.65664 11.9223C4.65664 12.2142 4.55423 12.4668 4.34943 12.6801C4.14462 12.8934 3.8967 13 3.60566 13V13ZM9.87918 13C9.58814 13 9.34291 12.8934 9.1435 12.6801C8.94408 12.4668 8.84437 12.2085 8.84437 11.9054C8.84437 11.6023 8.94408 11.3469 9.1435 11.1392C9.34291 10.9316 9.58814 10.8277 9.87918 10.8277C10.1594 10.8277 10.402 10.9344 10.6068 11.1477C10.8116 11.361 10.914 11.6192 10.914 11.9223C10.914 12.2142 10.8143 12.4668 10.6149 12.6801C10.4154 12.8934 10.1702 13 9.87918 13V13ZM2.66786 2.10492L4.46261 6.01166H9.08691L11.0595 2.29016C11.0811 2.23402 11.0811 2.18912 11.0595 2.15544C11.038 2.12176 11.0056 2.10492 10.9625 2.10492H2.66786ZM3.49248 9.53109C3.08287 9.53109 2.78913 9.38234 2.61127 9.08485C2.43342 8.78735 2.43611 8.46459 2.61936 8.11658L3.65417 6.14637L1.21267 0.757772H0.355715C0.258702 0.757772 0.175163 0.721287 0.105098 0.648316C0.0350325 0.575346 0 0.482729 0 0.370466C0 0.26943 0.0350325 0.182427 0.105098 0.109456C0.175163 0.0364853 0.264092 0 0.371884 0H1.39052C1.48754 0 1.57377 0.025259 1.64923 0.0757772C1.72468 0.126295 1.77858 0.190846 1.81091 0.26943L2.29598 1.33031H11.2535C11.5985 1.33031 11.8248 1.44257 11.9326 1.6671C12.0404 1.89162 12.0189 2.14421 11.868 2.42487L9.87918 6.16321C9.78217 6.34283 9.64743 6.49158 9.47496 6.60946C9.30249 6.72733 9.11925 6.78627 8.92522 6.78627H4.13923L3.24994 8.50389C3.21761 8.54879 3.21491 8.60212 3.24186 8.66386C3.26881 8.72561 3.31462 8.75648 3.3793 8.75648H10.5744C10.6607 8.75648 10.7388 8.79577 10.8089 8.87435C10.879 8.95294 10.914 9.04275 10.914 9.14378C10.914 9.25605 10.879 9.34866 10.8089 9.42163C10.7388 9.4946 10.6553 9.53109 10.5583 9.53109H3.49248ZM4.46261 6.01166H9.08691H4.46261Z" fill="#292929"/>
</svg>
