<svg width="20" height="20" viewBox="0 0 20 20" fill="none" xmlns="http://www.w3.org/2000/svg">
<path d="M11.3333 14.375L7.375 10.4167C7.30556 10.3472 7.25694 10.2778 7.22917 10.2083C7.20139 10.1389 7.1875 10.0625 7.1875 9.97917C7.1875 9.89583 7.20139 9.82292 7.22917 9.76042C7.25694 9.69792 7.30556 9.63194 7.375 9.5625L11.3542 5.58333C11.4514 5.48611 11.566 5.4375 11.6979 5.4375C11.8299 5.4375 11.9444 5.48611 12.0417 5.58333C12.125 5.68056 12.1667 5.79861 12.1667 5.9375C12.1667 6.07639 12.1181 6.19444 12.0208 6.29167L8.3125 9.97917L12.0417 13.7083C12.125 13.8056 12.1667 13.9132 12.1667 14.0312C12.1667 14.1493 12.125 14.2639 12.0417 14.375C11.9444 14.4722 11.8264 14.5208 11.6875 14.5208C11.5486 14.5208 11.4306 14.4722 11.3333 14.375V14.375Z" fill="#524D4B"/>
</svg>
