<svg width="26" height="26" viewBox="0 0 25 25" fill="none" xmlns="http://www.w3.org/2000/svg">
<path d="M3.90625 18.75C3.68056 18.75 3.49392 18.6762 3.34635 18.5286C3.19878 18.3811 3.125 18.1944 3.125 17.9687C3.125 17.7431 3.19878 17.5564 3.34635 17.4089C3.49392 17.2613 3.68056 17.1875 3.90625 17.1875H21.0937C21.3194 17.1875 21.5061 17.2613 21.6536 17.4089C21.8012 17.5564 21.875 17.7431 21.875 17.9687C21.875 18.1944 21.8012 18.3811 21.6536 18.5286C21.5061 18.6762 21.3194 18.75 21.0937 18.75H3.90625ZM3.90625 13.2812C3.68056 13.2812 3.49392 13.2075 3.34635 13.0599C3.19878 12.9123 3.125 12.7257 3.125 12.5C3.125 12.2743 3.19878 12.0877 3.34635 11.9401C3.49392 11.7925 3.68056 11.7187 3.90625 11.7187H21.0937C21.3194 11.7187 21.5061 11.7925 21.6536 11.9401C21.8012 12.0877 21.875 12.2743 21.875 12.5C21.875 12.7257 21.8012 12.9123 21.6536 13.0599C21.5061 13.2075 21.3194 13.2812 21.0937 13.2812H3.90625ZM3.90625 7.8125C3.68056 7.8125 3.49392 7.73872 3.34635 7.59115C3.19878 7.44358 3.125 7.25694 3.125 7.03125C3.125 6.80556 3.19878 6.61892 3.34635 6.47135C3.49392 6.32378 3.68056 6.25 3.90625 6.25H21.0937C21.3194 6.25 21.5061 6.32378 21.6536 6.47135C21.8012 6.61892 21.875 6.80556 21.875 7.03125C21.875 7.25694 21.8012 7.44358 21.6536 7.59115C21.5061 7.73872 21.3194 7.8125 21.0937 7.8125H3.90625Z" fill="#524D4B"/>
</svg>
