<svg width="20" height="20" viewBox="0 0 20 20" fill="none" xmlns="http://www.w3.org/2000/svg">
<path d="M7.47919 14.375C7.39586 14.2639 7.35072 14.1458 7.34377 14.0208C7.33683 13.8958 7.38197 13.7847 7.47919 13.6875L11.1875 9.97917L7.47919 6.27083C7.38197 6.1875 7.33683 6.07639 7.34377 5.9375C7.35072 5.79861 7.39586 5.68056 7.47919 5.58333C7.5903 5.48611 7.70488 5.4375 7.82294 5.4375C7.941 5.4375 8.04863 5.48611 8.14586 5.58333L12.125 9.5625C12.1945 9.63194 12.2431 9.69792 12.2709 9.76042C12.2986 9.82292 12.3125 9.89583 12.3125 9.97917C12.3125 10.0625 12.2986 10.1389 12.2709 10.2083C12.2431 10.2778 12.1945 10.3472 12.125 10.4167L8.16669 14.375C8.06947 14.4722 7.95836 14.5174 7.83336 14.5104C7.70836 14.5035 7.5903 14.4583 7.47919 14.375Z" fill="#524D4B"/>
</svg>
