<svg width="25" height="25" viewBox="0 0 25 25" fill="none" xmlns="http://www.w3.org/2000/svg">
<path d="M12.5782 13.7498C12.7345 13.7498 12.869 13.6934 12.9819 13.5806C13.0947 13.4677 13.1511 13.3245 13.1511 13.1509V7.81234C13.1511 7.65609 13.0947 7.52588 12.9819 7.42171C12.869 7.31755 12.7258 7.26546 12.5522 7.26546C12.3786 7.26546 12.2397 7.32189 12.1355 7.43473C12.0313 7.54758 11.9792 7.68213 11.9792 7.83838V13.1769C11.9792 13.3332 12.0357 13.4677 12.1485 13.5806C12.2614 13.6934 12.4046 13.7498 12.5782 13.7498ZM12.5001 17.4217C12.7084 17.4217 12.8777 17.3566 13.0079 17.2264C13.1381 17.0962 13.2032 16.9269 13.2032 16.7186C13.2032 16.5103 13.1381 16.341 13.0079 16.2108C12.8777 16.0806 12.7084 16.0155 12.5001 16.0155C12.2917 16.0155 12.1225 16.0806 11.9923 16.2108C11.8621 16.341 11.797 16.5103 11.797 16.7186C11.797 16.9269 11.8621 17.0962 11.9923 17.2264C12.1225 17.3566 12.2917 17.4217 12.5001 17.4217ZM12.5001 22.3957C11.1112 22.3957 9.81345 22.1439 8.60685 21.6405C7.40025 21.137 6.34991 20.4382 5.45581 19.5441C4.56171 18.65 3.86293 17.5997 3.35946 16.3931C2.85598 15.1865 2.60425 13.8887 2.60425 12.4998C2.60425 11.1109 2.85598 9.81754 3.35946 8.61963C3.86293 7.42171 4.56171 6.3757 5.45581 5.48161C6.34991 4.58751 7.40025 3.88439 8.60685 3.37223C9.81345 2.86008 11.1112 2.604 12.5001 2.604C13.889 2.604 15.1824 2.86008 16.3803 3.37223C17.5782 3.88439 18.6242 4.58751 19.5183 5.48161C20.4124 6.3757 21.1155 7.42171 21.6277 8.61963C22.1398 9.81754 22.3959 11.1109 22.3959 12.4998C22.3959 13.8887 22.1398 15.1865 21.6277 16.3931C21.1155 17.5997 20.4124 18.65 19.5183 19.5441C18.6242 20.4382 17.5782 21.137 16.3803 21.6405C15.1824 22.1439 13.889 22.3957 12.5001 22.3957ZM12.5001 21.2238C14.8959 21.2238 16.9489 20.3688 18.6589 18.6587C20.369 16.9486 21.224 14.8957 21.224 12.4998C21.224 10.104 20.369 8.05105 18.6589 6.34098C16.9489 4.63091 14.8959 3.77588 12.5001 3.77588C10.1042 3.77588 8.0513 4.63091 6.34123 6.34098C4.63116 8.05105 3.77612 10.104 3.77612 12.4998C3.77612 14.8957 4.63116 16.9486 6.34123 18.6587C8.0513 20.3688 10.1042 21.2238 12.5001 21.2238Z" fill="#524D4B"/>
</svg>
